{
.appVersion = "1075";
copyright = "Copyright 2018 Google Inc. All Rights Reserved.";
customParameters = (
{
name = glyphOrder;
value = (
.notdef,
NULL,
CR,
space,
uni00A0,
uni200C,
u108E0,
u108E1,
u108E2,
u108E3,
u108E4,
u108E5,
u108E6,
u108E7,
u108E8,
u108E9,
u108EA,
u108EB,
u108EC,
u108ED,
u108EE,
u108EF,
u108F0,
u108F1,
u108F2,
u108F4,
u108F5,
u108FB,
u108FC,
u108FD,
u108FE,
u108FF
);
},
{
name = description;
value = "Designed by Monotype design team.";
},
{
name = license;
value = "This Font Software is licensed under the SIL Open Font License, Version 1.1. This Font Software is distributed on an \"AS IS\" BASIS, WITHOUT WARRANTIES OR CONDITIONS OF ANY KIND, either express or implied. See the SIL Open Font License for the specific language, permissions and limitations governing your use of this Font Software.";
},
{
name = licenseURL;
value = "http://scripts.sil.org/OFL";
},
{
name = vendorID;
value = GOOG;
},
{
name = unicodeRanges;
value = (
0,
1,
31,
57
);
},
{
name = trademark;
value = "Noto is a trademark of Google Inc.";
},
{
name = "Has WWS Names";
value = 1;
},
{
name = versionString;
value = "Version 2.000";
},
{
name = fsType;
value = (
);
},
{
name = codePageRanges;
value = (
"1252"
);
}
);
date = "2018-02-02 14:03:48 +0000";
designer = "Monotype Design Team";
designerURL = "http://www.monotype.com/studio";
disablesAutomaticAlignment = 1;
disablesNiceNames = 1;
familyName = "Noto Sans Hatran";
fontMaster = (
{
alignmentZones = (
"{763, 15}",
"{760, 15}",
"{560, 15}",
"{0, -15}",
"{-220, -15}"
);
ascender = 760;
capHeight = 763;
customParameters = (
{
name = typoAscender;
value = 1069;
},
{
name = typoDescender;
value = -293;
},
{
name = typoLineGap;
value = 0;
},
{
name = winAscent;
value = 1069;
},
{
name = winDescent;
value = 293;
},
{
name = hheaAscender;
value = 1069;
},
{
name = hheaDescender;
value = -293;
},
{
name = hheaLineGap;
value = 0;
},
{
name = underlinePosition;
value = -100;
},
{
name = underlineThickness;
value = 50;
}
);

glyphs = (
{
glyphname = .notdef;
lastChange = "2018-02-02 17:08:44 +0000";
layers = (
{
layerId = UUID0;
paths = (
{
closed = 1;
nodes = (
"505 0 LINE",
"505 714 LINE",
"94 714 LINE",
"94 0 LINE"
);
},
{
closed = 1;
nodes = (
"145 663 LINE",
"454 663 LINE",
"454 51 LINE",
"145 51 LINE"
);
}
);
width = 600;
}
);
script = "";
category = Separator;
subCategory = Other;
},
{
glyphname = u108E0;
lastChange = "2018-02-02 17:08:44 +0000";
layers = (
{
layerId = UUID0;
paths = (
{
closed = 1;
nodes = (
"585 0 LINE SMOOTH",
"666 0 OFFCURVE",
"683 29 OFFCURVE",
"683 80 CURVE SMOOTH",
"683 541 LINE SMOOTH",
"683 553 OFFCURVE",
"661 560 OFFCURVE",
"638 560 CURVE SMOOTH",
"616 560 OFFCURVE",
"593 553 OFFCURVE",
"593 541 CURVE SMOOTH",
"593 139 LINE SMOOTH",
"593 95 OFFCURVE",
"585 80 OFFCURVE",
"527 80 CURVE SMOOTH",
"311 80 LINE",
"311 541 LINE SMOOTH",
"311 553 OFFCURVE",
"288 560 OFFCURVE",
"266 560 CURVE SMOOTH",
"243 560 OFFCURVE",
"221 553 OFFCURVE",
"221 541 CURVE SMOOTH",
"221 80 LINE",
"51 80 LINE SMOOTH",
"37 80 OFFCURVE",
"30 60 OFFCURVE",
"30 40 CURVE SMOOTH",
"30 20 OFFCURVE",
"37 0 OFFCURVE",
"51 0 CURVE SMOOTH"
);
}
);
width = 783;
}
);
unicode = 108E0;
},
{
glyphname = u108E1;
lastChange = "2018-02-02 17:08:44 +0000";
layers = (
{
layerId = UUID0;
paths = (
{
closed = 1;
nodes = (
"352 0 LINE SMOOTH",
"525 0 OFFCURVE",
"577 142 OFFCURVE",
"577 257 CURVE SMOOTH",
"577 362 OFFCURVE",
"511 474 OFFCURVE",
"430 550 CURVE SMOOTH",
"427 553 OFFCURVE",
"423 554 OFFCURVE",
"419 554 CURVE SMOOTH",
"400 554 OFFCURVE",
"361 523 OFFCURVE",
"361 498 CURVE SMOOTH",
"361 493 OFFCURVE",
"362 487 OFFCURVE",
"366 484 CURVE SMOOTH",
"441 411 OFFCURVE",
"482 334 OFFCURVE",
"482 254 CURVE SMOOTH",
"482 159 OFFCURVE",
"445 80 OFFCURVE",
"345 80 CURVE SMOOTH",
"51 80 LINE SMOOTH",
"37 80 OFFCURVE",
"30 60 OFFCURVE",
"30 40 CURVE SMOOTH",
"30 20 OFFCURVE",
"37 0 OFFCURVE",
"51 0 CURVE SMOOTH"
);
}
);
width = 637;
}
);
unicode = 108E1;
},
{
glyphname = u108E2;
lastChange = "2018-02-02 17:08:44 +0000";
layers = (
{
layerId = UUID0;
paths = (
{
closed = 1;
nodes = (
"648 0 LINE SMOOTH",
"664 0 OFFCURVE",
"674 6 OFFCURVE",
"674 17 CURVE SMOOTH",
"674 24 OFFCURVE",
"670 34 OFFCURVE",
"660 45 CURVE SMOOTH",
"234 543 LINE SMOOTH",
"224 555 OFFCURVE",
"209 569 OFFCURVE",
"194 569 CURVE SMOOTH",
"175 569 OFFCURVE",
"145 552 OFFCURVE",
"145 521 CURVE SMOOTH",
"145 510 OFFCURVE",
"151 499 OFFCURVE",
"164 483 CURVE SMOOTH",
"508 80 LINE",
"51 80 LINE SMOOTH",
"37 80 OFFCURVE",
"30 60 OFFCURVE",
"30 40 CURVE SMOOTH",
"30 20 OFFCURVE",
"37 0 OFFCURVE",
"51 0 CURVE SMOOTH"
);
}
);
width = 684;
}
);
unicode = 108E2;
},
{
glyphname = u108E3;
lastChange = "2018-02-02 17:08:44 +0000";
layers = (
{
layerId = UUID0;
paths = (
{
closed = 1;
nodes = (
"390 0 OFFCURVE",
"412 7 OFFCURVE",
"412 19 CURVE SMOOTH",
"412 480 LINE SMOOTH",
"412 531 OFFCURVE",
"395 560 OFFCURVE",
"314 560 CURVE SMOOTH",
"51 560 LINE",
"37 560 OFFCURVE",
"30 540 OFFCURVE",
"30 520 CURVE SMOOTH",
"30 500 OFFCURVE",
"37 480 OFFCURVE",
"51 480 CURVE SMOOTH",
"256 480 LINE SMOOTH",
"314 480 OFFCURVE",
"322 465 OFFCURVE",
"322 421 CURVE SMOOTH",
"322 19 LINE SMOOTH",
"322 7 OFFCURVE",
"345 0 OFFCURVE",
"367 0 CURVE SMOOTH"
);
}
);
width = 512;
}
);
unicode = 108E3;
},
{
glyphname = u108E4;
lastChange = "2018-02-02 17:08:44 +0000";
layers = (
{
layerId = UUID0;
paths = (
{
closed = 1;
nodes = (
"137 -10 OFFCURVE",
"144 4 OFFCURVE",
"159 35 CURVE SMOOTH",
"299 328 LINE",
"619 22 LINE SMOOTH",
"634 7 OFFCURVE",
"655 -10 OFFCURVE",
"679 -10 CURVE SMOOTH",
"716 -10 OFFCURVE",
"723 5 OFFCURVE",
"723 60 CURVE SMOOTH",
"723 541 LINE SMOOTH",
"723 553 OFFCURVE",
"701 560 OFFCURVE",
"678 560 CURVE SMOOTH",
"656 560 OFFCURVE",
"633 553 OFFCURVE",
"633 541 CURVE SMOOTH",
"633 139 LINE SMOOTH",
"633 135 OFFCURVE",
"632 132 OFFCURVE",
"631 129 CURVE",
"216 534 LINE SMOOTH",
"205 545 OFFCURVE",
"189 560 OFFCURVE",
"174 560 CURVE SMOOTH",
"155 560 OFFCURVE",
"127 543 OFFCURVE",
"127 512 CURVE SMOOTH",
"127 501 OFFCURVE",
"131 488 OFFCURVE",
"146 474 CURVE SMOOTH",
"234 390 LINE",
"73 53 LINE SMOOTH",
"69 44 OFFCURVE",
"66 35 OFFCURVE",
"66 28 CURVE SMOOTH",
"66 6 OFFCURVE",
"86 -10 OFFCURVE",
"115 -10 CURVE SMOOTH"
);
}
);
width = 823;
}
);
unicode = 108E4;
},
{
glyphname = u108E5;
lastChange = "2018-02-02 17:08:44 +0000";
layers = (
{
layerId = UUID0;
paths = (
{
closed = 1;
nodes = (
"102 -10 OFFCURVE",
"117 -1 OFFCURVE",
"130 12 CURVE SMOOTH",
"195 77 OFFCURVE",
"232 150 OFFCURVE",
"232 275 CURVE SMOOTH",
"232 381 OFFCURVE",
"198 459 OFFCURVE",
"143 545 CURVE SMOOTH",
"136 555 OFFCURVE",
"127 560 OFFCURVE",
"116 560 CURVE SMOOTH",
"88 560 OFFCURVE",
"56 532 OFFCURVE",
"56 519 CURVE SMOOTH",
"56 514 OFFCURVE",
"58 509 OFFCURVE",
"62 503 CURVE SMOOTH",
"110 432 OFFCURVE",
"137 353 OFFCURVE",
"137 275 CURVE SMOOTH",
"137 177 OFFCURVE",
"100 115 OFFCURVE",
"55 67 CURVE SMOOTH",
"44 56 OFFCURVE",
"40 45 OFFCURVE",
"40 36 CURVE SMOOTH",
"40 20 OFFCURVE",
"63 -10 OFFCURVE",
"90 -10 CURVE SMOOTH"
);
}
);
width = 292;
}
);
unicode = 108E5;
},
{
glyphname = u108E6;
lastChange = "2018-02-02 17:08:44 +0000";
layers = (
{
layerId = UUID0;
paths = (
{
closed = 1;
nodes = (
"188 -10 OFFCURVE",
"210 -3 OFFCURVE",
"210 9 CURVE SMOOTH",
"210 541 LINE SMOOTH",
"210 553 OFFCURVE",
"188 560 OFFCURVE",
"165 560 CURVE SMOOTH",
"143 560 OFFCURVE",
"120 553 OFFCURVE",
"120 541 CURVE SMOOTH",
"120 9 LINE SMOOTH",
"120 -3 OFFCURVE",
"143 -10 OFFCURVE",
"165 -10 CURVE SMOOTH"
);
}
);
width = 330;
}
);
unicode = 108E6;
},
{
glyphname = u108E7;
lastChange = "2018-02-02 17:08:44 +0000";
layers = (
{
layerId = UUID0;
paths = (
{
closed = 1;
nodes = (
"167 -10 OFFCURVE",
"190 -3 OFFCURVE",
"190 9 CURVE SMOOTH",
"190 403 LINE SMOOTH",
"190 407 OFFCURVE",
"191 410 OFFCURVE",
"192 413 CURVE",
"538 22 LINE SMOOTH",
"552 6 OFFCURVE",
"574 -10 OFFCURVE",
"598 -10 CURVE SMOOTH",
"635 -10 OFFCURVE",
"642 5 OFFCURVE",
"642 60 CURVE SMOOTH",
"642 541 LINE SMOOTH",
"642 553 OFFCURVE",
"620 560 OFFCURVE",
"597 560 CURVE SMOOTH",
"575 560 OFFCURVE",
"552 553 OFFCURVE",
"552 541 CURVE SMOOTH",
"552 147 LINE SMOOTH",
"552 143 OFFCURVE",
"551 140 OFFCURVE",
"550 137 CURVE",
"204 528 LINE SMOOTH",
"190 544 OFFCURVE",
"168 560 OFFCURVE",
"144 560 CURVE SMOOTH",
"107 560 OFFCURVE",
"100 545 OFFCURVE",
"100 490 CURVE SMOOTH",
"100 9 LINE SMOOTH",
"100 -3 OFFCURVE",
"122 -10 OFFCURVE",
"145 -10 CURVE SMOOTH"
);
}
);
width = 742;
}
);
unicode = 108E7;
},
{
glyphname = u108E8;
lastChange = "2018-02-02 17:08:44 +0000";
layers = (
{
layerId = UUID0;
paths = (
{
closed = 1;
nodes = (
"511 -10 OFFCURVE",
"602 100 OFFCURVE",
"602 252 CURVE SMOOTH",
"602 321 OFFCURVE",
"573 370 OFFCURVE",
"559 391 CURVE SMOOTH",
"548 407 OFFCURVE",
"539 420 OFFCURVE",
"524 420 CURVE SMOOTH",
"497 420 OFFCURVE",
"467 394 OFFCURVE",
"467 374 CURVE SMOOTH",
"467 364 OFFCURVE",
"472 356 OFFCURVE",
"476 351 CURVE SMOOTH",
"492 331 OFFCURVE",
"508 287 OFFCURVE",
"508 238 CURVE SMOOTH",
"508 147 OFFCURVE",
"436 68 OFFCURVE",
"337 68 CURVE SMOOTH",
"265 68 OFFCURVE",
"155 117 OFFCURVE",
"155 275 CURVE SMOOTH",
"155 413 OFFCURVE",
"250 564 OFFCURVE",
"375 676 CURVE SMOOTH",
"393 692 OFFCURVE",
"402 707 OFFCURVE",
"402 717 CURVE SMOOTH",
"402 736 OFFCURVE",
"378 763 OFFCURVE",
"353 763 CURVE SMOOTH",
"335 763 OFFCURVE",
"313 741 OFFCURVE",
"294 722 CURVE SMOOTH",
"197 625 OFFCURVE",
"60 468 OFFCURVE",
"60 275 CURVE SMOOTH",
"60 77 OFFCURVE",
"185 -10 OFFCURVE",
"327 -10 CURVE SMOOTH"
);
}
);
width = 662;
}
);
unicode = 108E8;
},
{
glyphname = u108E9;
lastChange = "2018-02-02 17:08:44 +0000";
layers = (
{
layerId = UUID0;
paths = (
{
closed = 1;
nodes = (
"192 7 OFFCURVE",
"207 17 OFFCURVE",
"220 35 CURVE SMOOTH",
"238 60 OFFCURVE",
"262 96 OFFCURVE",
"262 161 CURVE SMOOTH",
"262 222 OFFCURVE",
"229 274 OFFCURVE",
"200 313 CURVE SMOOTH",
"175 346 OFFCURVE",
"155 376 OFFCURVE",
"155 405 CURVE SMOOTH",
"155 448 OFFCURVE",
"219 474 OFFCURVE",
"275 482 CURVE SMOOTH",
"317 488 OFFCURVE",
"327 504 OFFCURVE",
"327 526 CURVE SMOOTH",
"327 546 OFFCURVE",
"320 571 OFFCURVE",
"298 571 CURVE SMOOTH",
"291 571 OFFCURVE",
"268 567 OFFCURVE",
"257 565 CURVE SMOOTH",
"147 545 OFFCURVE",
"60 499 OFFCURVE",
"60 413 CURVE SMOOTH",
"60 360 OFFCURVE",
"86 319 OFFCURVE",
"114 277 CURVE SMOOTH",
"140 238 OFFCURVE",
"167 197 OFFCURVE",
"167 147 CURVE SMOOTH",
"167 117 OFFCURVE",
"164 104 OFFCURVE",
"143 78 CURVE SMOOTH",
"132 64 OFFCURVE",
"129 58 OFFCURVE",
"129 46 CURVE SMOOTH",
"129 32 OFFCURVE",
"153 7 OFFCURVE",
"177 7 CURVE SMOOTH"
);
}
);
width = 387;
}
);
unicode = 108E9;
},
{
glyphname = u108EA;
lastChange = "2018-02-02 17:08:44 +0000";
layers = (
{
layerId = UUID0;
paths = (
{
closed = 1;
nodes = (
"480 -220 OFFCURVE",
"502 -213 OFFCURVE",
"502 -201 CURVE SMOOTH",
"502 480 LINE SMOOTH",
"502 531 OFFCURVE",
"485 560 OFFCURVE",
"404 560 CURVE SMOOTH",
"51 560 LINE SMOOTH",
"37 560 OFFCURVE",
"30 540 OFFCURVE",
"30 520 CURVE SMOOTH",
"30 500 OFFCURVE",
"37 480 OFFCURVE",
"51 480 CURVE SMOOTH",
"346 480 LINE SMOOTH",
"404 480 OFFCURVE",
"412 465 OFFCURVE",
"412 421 CURVE SMOOTH",
"412 -201 LINE SMOOTH",
"412 -213 OFFCURVE",
"435 -220 OFFCURVE",
"457 -220 CURVE SMOOTH"
);
}
);
width = 602;
}
);
unicode = 108EA;
},
{
glyphname = u108EB;
lastChange = "2018-02-02 17:08:44 +0000";
layers = (
{
layerId = UUID0;
paths = (
{
closed = 1;
nodes = (
"433 36 OFFCURVE",
"455 43 OFFCURVE",
"455 55 CURVE SMOOTH",
"455 312 LINE SMOOTH",
"455 346 OFFCURVE",
"443 380 OFFCURVE",
"419 407 CURVE SMOOTH",
"128 734 LINE SMOOTH",
"118 746 OFFCURVE",
"103 760 OFFCURVE",
"88 760 CURVE SMOOTH",
"69 760 OFFCURVE",
"39 743 OFFCURVE",
"39 712 CURVE SMOOTH",
"39 701 OFFCURVE",
"44 690 OFFCURVE",
"58 674 CURVE SMOOTH",
"333 371 LINE SMOOTH",
"354 347 OFFCURVE",
"365 324 OFFCURVE",
"365 291 CURVE SMOOTH",
"365 55 LINE SMOOTH",
"365 43 OFFCURVE",
"388 36 OFFCURVE",
"410 36 CURVE SMOOTH"
);
}
);
width = 555;
}
);
unicode = 108EB;
},
{
glyphname = u108EC;
lastChange = "2018-02-02 17:08:44 +0000";
layers = (
{
layerId = UUID0;
paths = (
{
closed = 1;
nodes = (
"208 -10 OFFCURVE",
"230 -3 OFFCURVE",
"230 9 CURVE SMOOTH",
"230 480 LINE",
"466 480 LINE SMOOTH",
"524 480 OFFCURVE",
"532 465 OFFCURVE",
"532 421 CURVE SMOOTH",
"532 9 LINE SMOOTH",
"532 -3 OFFCURVE",
"555 -10 OFFCURVE",
"577 -10 CURVE SMOOTH",
"600 -10 OFFCURVE",
"622 -3 OFFCURVE",
"622 9 CURVE SMOOTH",
"622 480 LINE SMOOTH",
"622 531 OFFCURVE",
"605 560 OFFCURVE",
"524 560 CURVE SMOOTH",
"230 560 LINE",
"230 681 LINE SMOOTH",
"230 693 OFFCURVE",
"208 700 OFFCURVE",
"185 700 CURVE SMOOTH",
"163 700 OFFCURVE",
"140 693 OFFCURVE",
"140 681 CURVE SMOOTH",
"140 560 LINE",
"51 560 LINE SMOOTH",
"37 560 OFFCURVE",
"30 540 OFFCURVE",
"30 520 CURVE SMOOTH",
"30 500 OFFCURVE",
"37 480 OFFCURVE",
"51 480 CURVE SMOOTH",
"140 480 LINE",
"140 9 LINE SMOOTH",
"140 -3 OFFCURVE",
"163 -10 OFFCURVE",
"185 -10 CURVE SMOOTH"
);
}
);
width = 722;
}
);
unicode = 108EC;
},
{
glyphname = u108ED;
lastChange = "2018-02-02 17:08:44 +0000";
layers = (
{
layerId = UUID0;
paths = (
{
closed = 1;
nodes = (
"188 -220 OFFCURVE",
"210 -213 OFFCURVE",
"210 -201 CURVE SMOOTH",
"210 541 LINE SMOOTH",
"210 553 OFFCURVE",
"188 560 OFFCURVE",
"165 560 CURVE SMOOTH",
"143 560 OFFCURVE",
"120 553 OFFCURVE",
"120 541 CURVE SMOOTH",
"120 -201 LINE SMOOTH",
"120 -213 OFFCURVE",
"143 -220 OFFCURVE",
"165 -220 CURVE SMOOTH"
);
}
);
width = 330;
}
);
unicode = 108ED;
},
{
glyphname = u108EE;
lastChange = "2018-02-02 17:08:44 +0000";
layers = (
{
layerId = UUID0;
paths = (
{
closed = 1;
nodes = (
"168 -10 OFFCURVE",
"190 -3 OFFCURVE",
"190 9 CURVE SMOOTH",
"190 480 LINE",
"536 480 LINE SMOOTH",
"594 480 OFFCURVE",
"602 465 OFFCURVE",
"602 421 CURVE SMOOTH",
"602 9 LINE SMOOTH",
"602 -3 OFFCURVE",
"625 -10 OFFCURVE",
"647 -10 CURVE SMOOTH",
"670 -10 OFFCURVE",
"692 -3 OFFCURVE",
"692 9 CURVE SMOOTH",
"692 480 LINE SMOOTH",
"692 531 OFFCURVE",
"675 560 OFFCURVE",
"594 560 CURVE SMOOTH",
"190 560 LINE",
"190 681 LINE SMOOTH",
"190 693 OFFCURVE",
"168 700 OFFCURVE",
"145 700 CURVE SMOOTH",
"123 700 OFFCURVE",
"100 693 OFFCURVE",
"100 681 CURVE SMOOTH",
"100 9 LINE SMOOTH",
"100 -3 OFFCURVE",
"123 -10 OFFCURVE",
"145 -10 CURVE SMOOTH"
);
}
);
width = 792;
}
);
unicode = 108EE;
},
{
glyphname = u108EF;
lastChange = "2018-02-02 17:08:44 +0000";
layers = (
{
layerId = UUID0;
paths = (
{
closed = 1;
nodes = (
"119 23 OFFCURVE",
"131 32 OFFCURVE",
"149 49 CURVE SMOOTH",
"336 224 LINE SMOOTH",
"355 242 OFFCURVE",
"369 258 OFFCURVE",
"369 276 CURVE SMOOTH",
"369 289 OFFCURVE",
"361 304 OFFCURVE",
"342 322 CURVE SMOOTH",
"137 512 LINE SMOOTH",
"126 522 OFFCURVE",
"115 527 OFFCURVE",
"106 527 CURVE SMOOTH",
"84 527 OFFCURVE",
"57 499 OFFCURVE",
"57 474 CURVE SMOOTH",
"57 464 OFFCURVE",
"62 456 OFFCURVE",
"71 448 CURVE SMOOTH",
"261 274 LINE",
"89 118 LINE SMOOTH",
"71 102 OFFCURVE",
"57 88 OFFCURVE",
"57 76 CURVE SMOOTH",
"57 64 OFFCURVE",
"75 23 OFFCURVE",
"106 23 CURVE SMOOTH"
);
}
);
width = 423;
}
);
unicode = 108EF;
},
{
glyphname = u108F0;
lastChange = "2018-02-02 17:08:44 +0000";
layers = (
{
layerId = UUID0;
paths = (
{
closed = 1;
nodes = (
"515 -220 OFFCURVE",
"537 -213 OFFCURVE",
"537 -201 CURVE SMOOTH",
"537 318 LINE SMOOTH",
"537 453 OFFCURVE",
"428 560 OFFCURVE",
"293 560 CURVE SMOOTH",
"158 560 OFFCURVE",
"50 453 OFFCURVE",
"50 318 CURVE SMOOTH",
"50 183 OFFCURVE",
"158 77 OFFCURVE",
"293 77 CURVE SMOOTH",
"351 77 OFFCURVE",
"405 97 OFFCURVE",
"447 130 CURVE",
"447 -201 LINE SMOOTH",
"447 -213 OFFCURVE",
"470 -220 OFFCURVE",
"492 -220 CURVE SMOOTH"
);
},
{
closed = 1;
nodes = (
"203 154 OFFCURVE",
"144 228 OFFCURVE",
"144 318 CURVE SMOOTH",
"144 406 OFFCURVE",
"203 482 OFFCURVE",
"293 482 CURVE SMOOTH",
"383 482 OFFCURVE",
"444 406 OFFCURVE",
"444 318 CURVE SMOOTH",
"444 228 OFFCURVE",
"383 154 OFFCURVE",
"293 154 CURVE SMOOTH"
);
}
);
width = 627;
}
);
unicode = 108F0;
},
{
glyphname = u108F1;
lastChange = "2018-02-02 17:08:44 +0000";
layers = (
{
layerId = UUID0;
paths = (
{
closed = 1;
nodes = (
"167 -220 OFFCURVE",
"190 -213 OFFCURVE",
"190 -201 CURVE SMOOTH",
"190 403 LINE SMOOTH",
"190 407 OFFCURVE",
"191 410 OFFCURVE",
"192 413 CURVE",
"538 22 LINE SMOOTH",
"552 6 OFFCURVE",
"574 -10 OFFCURVE",
"598 -10 CURVE SMOOTH",
"635 -10 OFFCURVE",
"642 5 OFFCURVE",
"642 60 CURVE SMOOTH",
"642 541 LINE SMOOTH",
"642 553 OFFCURVE",
"620 560 OFFCURVE",
"597 560 CURVE SMOOTH",
"575 560 OFFCURVE",
"552 553 OFFCURVE",
"552 541 CURVE SMOOTH",
"552 147 LINE SMOOTH",
"552 143 OFFCURVE",
"551 140 OFFCURVE",
"550 137 CURVE",
"204 528 LINE SMOOTH",
"190 544 OFFCURVE",
"168 560 OFFCURVE",
"144 560 CURVE SMOOTH",
"107 560 OFFCURVE",
"100 545 OFFCURVE",
"100 490 CURVE SMOOTH",
"100 -201 LINE SMOOTH",
"100 -213 OFFCURVE",
"122 -220 OFFCURVE",
"145 -220 CURVE SMOOTH"
);
}
);
width = 742;
}
);
unicode = 108F1;
},
{
glyphname = u108F2;
lastChange = "2018-02-02 17:08:44 +0000";
layers = (
{
layerId = UUID0;
paths = (
{
closed = 1;
nodes = (
"208 -10 OFFCURVE",
"230 -3 OFFCURVE",
"230 9 CURVE SMOOTH",
"230 480 LINE",
"466 480 LINE SMOOTH",
"524 480 OFFCURVE",
"532 465 OFFCURVE",
"532 421 CURVE SMOOTH",
"532 9 LINE SMOOTH",
"532 -3 OFFCURVE",
"555 -10 OFFCURVE",
"577 -10 CURVE SMOOTH",
"600 -10 OFFCURVE",
"622 -3 OFFCURVE",
"622 9 CURVE SMOOTH",
"622 480 LINE SMOOTH",
"622 531 OFFCURVE",
"605 560 OFFCURVE",
"524 560 CURVE SMOOTH",
"51 560 LINE SMOOTH",
"37 560 OFFCURVE",
"30 540 OFFCURVE",
"30 520 CURVE SMOOTH",
"30 500 OFFCURVE",
"37 480 OFFCURVE",
"51 480 CURVE SMOOTH",
"140 480 LINE",
"140 9 LINE SMOOTH",
"140 -3 OFFCURVE",
"163 -10 OFFCURVE",
"185 -10 CURVE SMOOTH"
);
}
);
width = 722;
}
);
unicode = 108F2;
},
{
glyphname = u108F4;
lastChange = "2018-02-02 17:08:44 +0000";
layers = (
{
layerId = UUID0;
paths = (
{
closed = 1;
nodes = (
"818 0 LINE SMOOTH",
"837 0 OFFCURVE",
"845 8 OFFCURVE",
"845 17 CURVE SMOOTH",
"845 28 OFFCURVE",
"843 34 OFFCURVE",
"822 50 CURVE SMOOTH",
"158 541 LINE SMOOTH",
"144 552 OFFCURVE",
"133 560 OFFCURVE",
"120 560 CURVE SMOOTH",
"105 560 OFFCURVE",
"100 544 OFFCURVE",
"100 526 CURVE SMOOTH",
"100 65 LINE SMOOTH",
"100 10 OFFCURVE",
"121 0 OFFCURVE",
"174 0 CURVE SMOOTH"
);
},
{
closed = 1;
nodes = (
"202 80 OFFCURVE",
"190 87 OFFCURVE",
"190 116 CURVE SMOOTH",
"190 412 LINE",
"638 80 LINE",
"228 80 LINE SMOOTH"
);
}
);
width = 855;
}
);
unicode = 108F4;
},
{
glyphname = u108F5;
lastChange = "2018-02-02 17:08:44 +0000";
layers = (
{
layerId = UUID0;
paths = (
{
closed = 1;
nodes = (
"168 -220 OFFCURVE",
"190 -213 OFFCURVE",
"190 -201 CURVE SMOOTH",
"190 280 LINE",
"426 280 LINE SMOOTH",
"484 280 OFFCURVE",
"492 265 OFFCURVE",
"492 221 CURVE SMOOTH",
"492 9 LINE SMOOTH",
"492 -3 OFFCURVE",
"515 -10 OFFCURVE",
"537 -10 CURVE SMOOTH",
"560 -10 OFFCURVE",
"582 -3 OFFCURVE",
"582 9 CURVE SMOOTH",
"582 280 LINE SMOOTH",
"582 331 OFFCURVE",
"565 360 OFFCURVE",
"484 360 CURVE SMOOTH",
"190 360 LINE",
"190 541 LINE SMOOTH",
"190 553 OFFCURVE",
"168 560 OFFCURVE",
"145 560 CURVE SMOOTH",
"123 560 OFFCURVE",
"100 553 OFFCURVE",
"100 541 CURVE SMOOTH",
"100 -201 LINE SMOOTH",
"100 -213 OFFCURVE",
"123 -220 OFFCURVE",
"145 -220 CURVE SMOOTH"
);
}
);
width = 682;
}
);
unicode = 108F5;
},
{
glyphname = u108FB;
lastChange = "2018-02-02 17:08:44 +0000";
layers = (
{
layerId = UUID0;
paths = (
{
closed = 1;
nodes = (
"188 -220 OFFCURVE",
"210 -213 OFFCURVE",
"210 -201 CURVE SMOOTH",
"210 541 LINE SMOOTH",
"210 553 OFFCURVE",
"188 560 OFFCURVE",
"165 560 CURVE SMOOTH",
"143 560 OFFCURVE",
"120 553 OFFCURVE",
"120 541 CURVE SMOOTH",
"120 -201 LINE SMOOTH",
"120 -213 OFFCURVE",
"143 -220 OFFCURVE",
"165 -220 CURVE SMOOTH"
);
}
);
width = 330;
}
);
unicode = 108FB;
},
{
glyphname = u108FC;
lastChange = "2018-02-02 17:08:44 +0000";
layers = (
{
layerId = UUID0;
paths = (
{
closed = 1;
nodes = (
"143 -7 OFFCURVE",
"155 -2 OFFCURVE",
"169 11 CURVE SMOOTH",
"422 246 LINE SMOOTH",
"434 257 OFFCURVE",
"443 266 OFFCURVE",
"443 276 CURVE SMOOTH",
"443 284 OFFCURVE",
"438 292 OFFCURVE",
"422 307 CURVE SMOOTH",
"169 541 LINE SMOOTH",
"160 550 OFFCURVE",
"145 560 OFFCURVE",
"133 560 CURVE SMOOTH",
"115 560 OFFCURVE",
"88 534 OFFCURVE",
"88 508 CURVE SMOOTH",
"88 493 OFFCURVE",
"94 486 OFFCURVE",
"106 475 CURVE SMOOTH",
"317 276 LINE",
"112 83 LINE SMOOTH",
"95 67 OFFCURVE",
"87 55 OFFCURVE",
"87 44 CURVE SMOOTH",
"87 27 OFFCURVE",
"104 -7 OFFCURVE",
"132 -7 CURVE SMOOTH"
);
}
);
width = 487;
}
);
unicode = 108FC;
},
{
glyphname = u108FD;
lastChange = "2018-02-02 17:08:44 +0000";
layers = (
{
layerId = UUID0;
paths = (
{
closed = 1;
nodes = (
"510 -10 OFFCURVE",
"532 -3 OFFCURVE",
"532 9 CURVE SMOOTH",
"532 480 LINE SMOOTH",
"532 531 OFFCURVE",
"515 560 OFFCURVE",
"434 560 CURVE SMOOTH",
"51 560 LINE SMOOTH",
"37 560 OFFCURVE",
"30 540 OFFCURVE",
"30 520 CURVE SMOOTH",
"30 500 OFFCURVE",
"37 480 OFFCURVE",
"51 480 CURVE SMOOTH",
"376 480 LINE SMOOTH",
"434 480 OFFCURVE",
"442 465 OFFCURVE",
"442 421 CURVE SMOOTH",
"442 9 LINE SMOOTH",
"442 -3 OFFCURVE",
"465 -10 OFFCURVE",
"487 -10 CURVE SMOOTH"
);
}
);
width = 632;
}
);
unicode = 108FD;
},
{
glyphname = u108FE;
lastChange = "2018-02-02 17:08:44 +0000";
layers = (
{
layerId = UUID0;
paths = (
{
closed = 1;
nodes = (
"148 -11 OFFCURVE",
"155 -9 OFFCURVE",
"164 -3 CURVE SMOOTH",
"358 133 LINE SMOOTH",
"370 142 OFFCURVE",
"376 148 OFFCURVE",
"376 156 CURVE SMOOTH",
"376 165 OFFCURVE",
"370 175 OFFCURVE",
"358 183 CURVE SMOOTH",
"223 279 LINE",
"358 374 LINE SMOOTH",
"372 384 OFFCURVE",
"376 392 OFFCURVE",
"376 400 CURVE SMOOTH",
"376 408 OFFCURVE",
"372 414 OFFCURVE",
"358 424 CURVE SMOOTH",
"164 560 LINE SMOOTH",
"155 566 OFFCURVE",
"147 569 OFFCURVE",
"140 569 CURVE SMOOTH",
"120 569 OFFCURVE",
"95 545 OFFCURVE",
"95 521 CURVE SMOOTH",
"95 511 OFFCURVE",
"100 500 OFFCURVE",
"111 492 CURVE SMOOTH",
"238 399 LINE",
"105 301 LINE SMOOTH",
"95 294 OFFCURVE",
"90 287 OFFCURVE",
"90 279 CURVE SMOOTH",
"90 272 OFFCURVE",
"94 265 OFFCURVE",
"105 257 CURVE SMOOTH",
"238 159 LINE",
"111 65 LINE SMOOTH",
"98 55 OFFCURVE",
"93 44 OFFCURVE",
"93 35 CURVE SMOOTH",
"93 22 OFFCURVE",
"112 -11 OFFCURVE",
"140 -11 CURVE SMOOTH"
);
}
);
width = 466;
}
);
unicode = 108FE;
},
{
glyphname = u108FF;
lastChange = "2018-02-02 17:08:44 +0000";
layers = (
{
layerId = UUID0;
paths = (
{
closed = 1;
nodes = (
"832 0 LINE SMOOTH",
"848 0 OFFCURVE",
"858 6 OFFCURVE",
"858 17 CURVE SMOOTH",
"858 24 OFFCURVE",
"854 32 OFFCURVE",
"844 45 CURVE SMOOTH",
"479 545 LINE SMOOTH",
"467 561 OFFCURVE",
"453 569 OFFCURVE",
"439 569 CURVE SMOOTH",
"424 569 OFFCURVE",
"410 561 OFFCURVE",
"398 545 CURVE SMOOTH",
"34 45 LINE SMOOTH",
"24 32 OFFCURVE",
"20 24 OFFCURVE",
"20 17 CURVE SMOOTH",
"20 6 OFFCURVE",
"30 0 OFFCURVE",
"46 0 CURVE SMOOTH"
);
},
{
closed = 1;
nodes = (
"439 450 LINE",
"705 80 LINE",
"173 80 LINE"
);
}
